<?xml version="1.0" encoding="UTF-8"?>
<svg xmlns="http://www.w3.org/2000/svg" xmlns:xlink="http://www.w3.org/1999/xlink" viewBox="0 0 96 96" width="96px" height="96px">
<g id="surface76043438">
<path style=" stroke:none;fill-rule:nonzero;fill:rgb(100%,100%,100%);fill-opacity:1;" d="M 14 12 C 10.691406 12 8 14.691406 8 18 L 8 36 L 12 36 L 12 76 C 12 80.410156 15.589844 84 20 84 L 76 84 C 80.410156 84 84 80.410156 84 76 L 84 36 L 88 36 L 88 18 C 88 14.691406 85.308594 12 82 12 Z M 16 20 L 80 20 L 80 28 L 16 28 Z M 20 36 L 76 36 L 76.007812 76 L 20 76 Z M 36 44 L 36 52 L 60 52 L 60 44 Z M 36 44 "/>
</g>
</svg>
