<?xml version="1.0" encoding="UTF-8"?>
<svg xmlns="http://www.w3.org/2000/svg" xmlns:xlink="http://www.w3.org/1999/xlink" viewBox="0 0 96 96" width="96px" height="96px">
<g id="surface90997841">
<path style=" stroke:none;fill-rule:nonzero;fill:rgb(100%,100%,100%);fill-opacity:1;" d="M 80 44 L 52 44 L 52 16 C 52 13.792969 50.207031 12 48 12 C 45.792969 12 44 13.792969 44 16 L 44 44 L 16 44 C 13.792969 44 12 45.792969 12 48 C 12 50.207031 13.792969 52 16 52 L 44 52 L 44 80 C 44 82.207031 45.792969 84 48 84 C 50.207031 84 52 82.207031 52 80 L 52 52 L 80 52 C 82.207031 52 84 50.207031 84 48 C 84 45.792969 82.207031 44 80 44 Z M 80 44 "/>
</g>
</svg>
