<?xml version="1.0" encoding="UTF-8"?>
<svg xmlns="http://www.w3.org/2000/svg" xmlns:xlink="http://www.w3.org/1999/xlink" viewBox="0 0 96 96" width="96px" height="96px">
<g id="surface91388765">
<path style=" stroke:none;fill-rule:nonzero;fill:rgb(100%,100%,100%);fill-opacity:1;" d="M 14.828125 9.171875 L 9.171875 14.828125 L 20.273438 25.929688 C 18.117188 27.6875 16.195312 29.558594 14.476562 31.4375 C 9.101562 37.429688 5.976562 43.554688 4.6875 46.382812 C 4.214844 47.421875 4.214844 48.578125 4.6875 49.617188 C 7.640625 56.125 20.359375 80 48 80 C 52.800781 80 57.15625 79.277344 61.078125 78.039062 C 63.953125 77.160156 66.59375 76.007812 68.992188 74.648438 L 81.171875 86.828125 L 86.828125 81.171875 Z M 48 16 C 43.199219 16 38.84375 16.722656 34.921875 17.960938 L 41.5625 24.601562 C 43.5625 24.203125 45.71875 24 48 24 C 69.121094 24 79.761719 41.078125 83.242188 48 C 81.921875 50.640625 79.484375 54.804688 75.84375 58.882812 L 81.523438 64.5625 C 86.898438 58.570312 90.023438 52.445312 91.3125 49.617188 C 91.785156 48.578125 91.785156 47.421875 91.3125 46.382812 C 88.359375 39.875 75.640625 16 48 16 Z M 25.953125 31.609375 L 34.234375 39.890625 C 32.796875 42.289062 32 45.042969 32 48 C 32 48.320312 32 48.679688 32.039062 49 C 32.519531 57.039062 38.960938 63.480469 47 63.960938 C 47.320312 64 47.679688 64 48 64 C 50.957031 64 53.710938 63.203125 56.109375 61.765625 L 63.03125 68.6875 C 60.433594 69.925781 57.554688 70.878906 54.4375 71.398438 C 52.398438 71.796875 50.28125 72 48 72 C 26.878906 72 16.238281 54.921875 12.757812 48 C 14.078125 45.359375 16.476562 41.195312 20.15625 37.117188 C 21.792969 35.238281 23.757812 33.367188 25.953125 31.609375 Z M 49 32.039062 L 63.960938 47 C 63.480469 38.960938 57.039062 32.519531 49 32.039062 Z M 40.28125 45.9375 L 50.0625 55.71875 C 49.425781 55.914062 48.714844 56 48 56 C 43.601562 56 40 52.398438 40 48 C 40 47.285156 40.085938 46.574219 40.28125 45.9375 Z M 40.28125 45.9375 "/>
</g>
</svg>
