<?xml version="1.0" encoding="UTF-8"?>
<svg xmlns="http://www.w3.org/2000/svg" xmlns:xlink="http://www.w3.org/1999/xlink" viewBox="0 0 384 384" width="384px" height="384px">
<g id="surface79826914">
<path style=" stroke:none;fill-rule:nonzero;fill:rgb(100%,100%,100%);fill-opacity:1;" d="M 207.6875 47.84375 C 203.53125 47.96875 199.585938 49.703125 196.6875 52.6875 L 68.6875 180.6875 C 62.441406 186.9375 62.441406 197.0625 68.6875 203.3125 L 196.6875 331.3125 C 200.699219 335.492188 206.660156 337.175781 212.265625 335.714844 C 217.875 334.253906 222.253906 329.875 223.714844 324.265625 C 225.175781 318.660156 223.492188 312.699219 219.3125 308.6875 L 102.625 192 L 219.3125 75.3125 C 224.042969 70.710938 225.46875 63.679688 222.894531 57.601562 C 220.324219 51.523438 214.285156 47.648438 207.6875 47.84375 Z M 303.6875 47.84375 C 299.53125 47.96875 295.585938 49.703125 292.6875 52.6875 L 164.6875 180.6875 C 158.441406 186.9375 158.441406 197.0625 164.6875 203.3125 L 292.6875 331.3125 C 296.699219 335.492188 302.660156 337.175781 308.265625 335.714844 C 313.875 334.253906 318.253906 329.875 319.714844 324.265625 C 321.175781 318.660156 319.492188 312.699219 315.3125 308.6875 L 198.625 192 L 315.3125 75.3125 C 320.042969 70.710938 321.46875 63.679688 318.894531 57.601562 C 316.324219 51.523438 310.285156 47.648438 303.6875 47.84375 Z M 303.6875 47.84375 "/>
</g>
</svg>
