<?xml version="1.0" encoding="UTF-8"?>
<svg xmlns="http://www.w3.org/2000/svg" xmlns:xlink="http://www.w3.org/1999/xlink" viewBox="0 0 96 96" width="96px" height="96px">
<g id="surface87980690">
<path style=" stroke:none;fill-rule:nonzero;fill:rgb(100%,100%,100%);fill-opacity:1;" d="M 88 48 C 88 52.152344 87.367188 56.160156 86.191406 59.925781 C 81.3125 57.621094 75.289062 56 68 56 C 56.875 56 48.695312 59.78125 43.03125 64 L 36 64 C 33.792969 64 32 65.792969 32 68 C 32 69.878906 33.296875 71.457031 35.042969 71.886719 C 34.722656 72.308594 34.4375 72.703125 34.183594 73.0625 C 31.6875 76.664062 31.34375 81.28125 33.160156 85.15625 C 18.417969 79.265625 8 64.847656 8 48 C 8 25.90625 25.90625 8 48 8 C 70.09375 8 88 25.90625 88 48 Z M 68 52 C 68 49.792969 66.207031 48 64 48 L 32 48 C 29.792969 48 28 49.792969 28 52 C 28 54.207031 29.792969 56 32 56 L 64 56 C 66.207031 56 68 54.207031 68 52 Z M 72 36 C 72 33.792969 70.207031 32 68 32 L 28 32 C 25.792969 32 24 33.792969 24 36 C 24 38.207031 25.792969 40 28 40 L 68 40 C 70.207031 40 72 38.207031 72 36 Z M 72 36 "/>
<path style=" stroke:none;fill-rule:nonzero;fill:rgb(100%,100%,100%);fill-opacity:1;" d="M 68 64 C 52.179688 64 43.855469 73.1875 40.746094 77.640625 C 39.753906 79.058594 39.753906 80.945312 40.746094 82.363281 C 43.851562 86.8125 52.179688 96 68 96 C 83.820312 96 92.148438 86.8125 95.253906 82.359375 C 96.25 80.941406 96.25 79.054688 95.253906 77.636719 C 92.148438 73.1875 83.820312 64 68 64 Z M 68 88 C 63.582031 88 60 84.414062 60 79.996094 C 60 75.578125 63.585938 71.996094 68.003906 71.996094 C 72.421875 71.996094 76.003906 75.582031 76.003906 80 C 76.003906 84.417969 72.417969 88 68 88 Z M 68 88 "/>
</g>
</svg>
