<?xml version="1.0" encoding="UTF-8"?>
<svg xmlns="http://www.w3.org/2000/svg" xmlns:xlink="http://www.w3.org/1999/xlink" viewBox="0 0 96 96" width="96px" height="96px">
<g id="surface77250826">
<path style=" stroke:none;fill-rule:nonzero;fill:rgb(100%,100%,100%);fill-opacity:1;" d="M 16 12 C 13.792969 12 12 13.792969 12 16 L 12 32 C 12 34.207031 13.792969 36 16 36 L 32 36 C 34.207031 36 36 34.207031 36 32 L 36 16 C 36 13.792969 34.207031 12 32 12 Z M 44 12 L 44 20 L 52 20 L 52 12 Z M 64 12 C 61.792969 12 60 13.792969 60 16 L 60 32 C 60 34.207031 61.792969 36 64 36 L 80 36 C 82.207031 36 84 34.207031 84 32 L 84 16 C 84 13.792969 82.207031 12 80 12 Z M 20 20 L 28 20 L 28 28 L 20 28 Z M 68 20 L 76 20 L 76 28 L 68 28 Z M 44 28 L 44 36 L 52 36 L 52 28 Z M 12 44 L 12 52 L 20 52 L 20 44 Z M 28 44 L 28 52 L 36 52 L 36 44 Z M 44 44 L 44 52 L 52 52 L 52 44 Z M 52 52 L 52 60 L 60 60 L 60 52 Z M 60 52 L 68 52 L 68 44 L 60 44 Z M 68 52 L 68 60 L 76 60 L 76 52 Z M 76 52 L 84 52 L 84 44 L 76 44 Z M 76 60 L 76 68 L 84 68 L 84 60 Z M 76 68 L 68 68 L 68 76 L 76 76 Z M 76 76 L 76 84 L 84 84 L 84 76 Z M 68 76 L 60 76 L 60 84 L 68 84 Z M 60 76 L 60 68 L 52 68 L 52 76 Z M 52 76 L 44 76 L 44 84 L 52 84 Z M 52 68 L 52 60 L 44 60 L 44 68 Z M 60 68 L 68 68 L 68 60 L 60 60 Z M 16 60 C 13.792969 60 12 61.792969 12 64 L 12 80 C 12 82.207031 13.792969 84 16 84 L 32 84 C 34.207031 84 36 82.207031 36 80 L 36 64 C 36 61.792969 34.207031 60 32 60 Z M 20 68 L 28 68 L 28 76 L 20 76 Z M 20 68 "/>
</g>
</svg>
