<?xml version="1.0" encoding="UTF-8"?>
<svg xmlns="http://www.w3.org/2000/svg" xmlns:xlink="http://www.w3.org/1999/xlink" viewBox="0 0 96 96" width="96px" height="96px">
<g id="surface87336059">
<path style=" stroke:none;fill-rule:nonzero;fill:rgb(100%,100%,100%);fill-opacity:1;" d="M 16 8 C 11.578125 8 8 11.578125 8 16 L 8 68 C 8 70.207031 9.792969 72 12 72 C 14.207031 72 16 70.207031 16 68 L 16 16 L 68 16 C 70.207031 16 72 14.207031 72 12 C 72 9.792969 70.207031 8 68 8 Z M 32 24 C 27.578125 24 24 27.578125 24 32 L 24 80 C 24 84.421875 27.578125 88 32 88 L 80 88 C 84.421875 88 88 84.421875 88 80 L 88 32 C 88 27.578125 84.421875 24 80 24 Z M 32 32 L 80 32 L 80 80 L 32 80 Z M 32 32 "/>
</g>
</svg>
