<?xml version="1.0" encoding="UTF-8"?>
<svg xmlns="http://www.w3.org/2000/svg" xmlns:xlink="http://www.w3.org/1999/xlink" viewBox="0 0 96 96" width="96px" height="96px">
<g id="surface89169644">
<path style=" stroke:none;fill-rule:nonzero;fill:rgb(100%,100%,100%);fill-opacity:1;" d="M 80 0 C 77.792969 0 76 1.792969 76 4 L 76 12 L 68 12 C 65.792969 12 64 13.792969 64 16 C 64 18.207031 65.792969 20 68 20 L 76 20 L 76 28 C 76 30.207031 77.792969 32 80 32 C 82.207031 32 84 30.207031 84 28 L 84 20 L 92 20 C 94.207031 20 96 18.207031 96 16 C 96 13.792969 94.207031 12 92 12 L 84 12 L 84 4 C 84 1.792969 82.207031 0 80 0 Z M 23 12 C 21.085938 12 19.441406 13.355469 19.078125 15.234375 L 12.070312 51.25 C 12.046875 51.503906 12.023438 51.746094 12 52 L 12 76 C 12 80.421875 15.578125 84 20 84 L 76 84 C 80.421875 84 84 80.421875 84 76 L 84 52.007812 C 83.976562 51.75 83.949219 51.496094 83.921875 51.234375 L 82.367188 43.234375 C 82.003906 41.359375 80.359375 40 78.445312 40 C 75.929688 40 74.039062 42.292969 74.515625 44.765625 L 75.921875 52 L 64 52 C 62.28125 52 60.75 53.097656 60.203125 54.734375 L 57.820312 61.890625 C 57.398438 63.148438 56.21875 64 54.890625 64 L 41.109375 64 C 39.78125 64 38.601562 63.152344 38.179688 61.890625 L 35.789062 54.734375 C 35.246094 53.101562 33.71875 52 32 52 L 20.078125 52 L 26.296875 20 L 52 20 C 54.207031 20 56 18.207031 56 16 C 56 13.792969 54.207031 12 52 12 Z M 23 12 "/>
</g>
</svg>
