<?xml version="1.0" encoding="UTF-8"?>
<svg xmlns="http://www.w3.org/2000/svg" xmlns:xlink="http://www.w3.org/1999/xlink" viewBox="0 0 96 96" width="96px" height="96px">
<g id="surface87405075">
<path style=" stroke:none;fill-rule:nonzero;fill:rgb(100%,100%,100%);fill-opacity:1;" d="M 8 12 C 3.578125 12 0 15.578125 0 20 L 0 48 C 0 50.207031 1.792969 52 4 52 C 6.207031 52 8 50.207031 8 48 L 8 20 L 76 20 C 78.207031 20 80 18.207031 80 16 C 80 13.792969 78.207031 12 76 12 Z M 24 28 C 19.589844 28 16 31.589844 16 36 L 16 60 C 16 64.410156 19.589844 68 24 68 L 28 68 C 28 52.535156 40.535156 40 56 40 C 71.464844 40 84 52.535156 84 68 L 88 68 C 92.410156 68 96 64.410156 96 60 L 96 36 C 96 31.589844 92.410156 28 88 28 Z M 56 48 C 44.957031 48 36 56.957031 36 68 C 36 79.042969 44.957031 88 56 88 C 67.042969 88 76 79.042969 76 68 C 76 56.957031 67.042969 48 56 48 Z M 56 56 C 58.207031 56 60 57.792969 60 60 L 60 64 L 64 64 C 66.207031 64 68 65.792969 68 68 C 68 70.207031 66.207031 72 64 72 L 60 72 L 60 76 C 60 78.207031 58.207031 80 56 80 C 53.792969 80 52 78.207031 52 76 L 52 72 L 48 72 C 45.792969 72 44 70.207031 44 68 C 44 65.792969 45.792969 64 48 64 L 52 64 L 52 60 C 52 57.792969 53.792969 56 56 56 Z M 56 56 "/>
</g>
</svg>
