<?xml version="1.0" encoding="UTF-8"?>
<svg xmlns="http://www.w3.org/2000/svg" xmlns:xlink="http://www.w3.org/1999/xlink" viewBox="0 0 96 96" width="96px" height="96px">
<g id="surface91827700">
<path style=" stroke:none;fill-rule:nonzero;fill:rgb(34.117648%,40.784314%,56.470591%);fill-opacity:1;" d="M 71.515625 3.515625 C 70.492188 3.515625 69.46875 3.90625 68.6875 4.6875 C 67.128906 6.246094 67.128906 8.785156 68.6875 10.34375 L 74.34375 16 L 68.6875 21.65625 C 67.128906 23.214844 67.128906 25.753906 68.6875 27.3125 C 70.246094 28.871094 72.785156 28.871094 74.34375 27.3125 L 80 21.65625 L 85.65625 27.3125 C 87.214844 28.875 89.75 28.875 91.3125 27.3125 C 92.875 25.753906 92.875 23.21875 91.3125 21.65625 L 85.65625 16 L 91.3125 10.34375 C 92.875 8.785156 92.875 6.25 91.3125 4.6875 C 89.753906 3.125 87.21875 3.125 85.65625 4.6875 L 80 10.34375 L 74.34375 4.6875 C 73.5625 3.90625 72.539062 3.515625 71.515625 3.515625 Z M 23.007812 12 C 21.09375 12 19.441406 13.359375 19.078125 15.242188 L 12.078125 51.25 C 12.050781 51.503906 12.023438 51.746094 12 52 L 12 76 C 12 80.421875 15.578125 84 20 84 L 76 84 C 80.421875 84 84 80.421875 84 76 L 84 52 C 83.976562 51.746094 83.953125 51.503906 83.929688 51.25 L 81.6875 39.226562 C 81.074219 36.078125 77.195312 34.894531 74.929688 37.164062 C 73.988281 38.105469 73.570312 39.453125 73.828125 40.757812 L 75.929688 52 L 64 52 C 62.28125 52 60.75 53.097656 60.203125 54.734375 L 57.820312 61.890625 C 57.398438 63.148438 56.21875 64 54.890625 64 L 41.109375 64 C 39.78125 64 38.601562 63.152344 38.179688 61.890625 L 35.789062 54.734375 C 35.246094 53.101562 33.71875 52 32 52 L 20.078125 52 L 26.296875 20 L 60 20 C 62.207031 20 64 18.207031 64 16 C 64 13.792969 62.207031 12 60 12 Z M 23.007812 12 "/>
</g>
</svg>
