<?xml version="1.0" encoding="UTF-8"?>
<svg xmlns="http://www.w3.org/2000/svg" xmlns:xlink="http://www.w3.org/1999/xlink" viewBox="0 0 96 96" width="96px" height="96px">
<g id="surface87981296">
<path style=" stroke:none;fill-rule:nonzero;fill:rgb(100%,100%,100%);fill-opacity:1;" d="M 48 16 C 20.566406 16 7.542969 39.515625 4.382812 46.226562 C 3.855469 47.347656 3.855469 48.644531 4.382812 49.765625 C 7.542969 56.480469 20.566406 80 48 80 C 75.335938 80 88.371094 56.652344 91.585938 49.84375 C 92.136719 48.671875 92.136719 47.328125 91.585938 46.15625 C 88.371094 39.347656 75.335938 16 48 16 Z M 48 28 C 59.042969 28 68 36.957031 68 48 C 68 59.042969 59.042969 68 48 68 C 36.957031 68 28 59.042969 28 48 C 28 36.957031 36.957031 28 48 28 Z M 48 36 C 41.371094 36 36 41.371094 36 48 C 36 54.628906 41.371094 60 48 60 C 54.628906 60 60 54.628906 60 48 C 60 41.371094 54.628906 36 48 36 Z M 48 36 "/>
</g>
</svg>
