<?xml version="1.0" encoding="UTF-8"?>
<svg xmlns="http://www.w3.org/2000/svg" xmlns:xlink="http://www.w3.org/1999/xlink" viewBox="0 0 96 96" width="96px" height="96px">
<g id="surface77213025">
<path style=" stroke:none;fill-rule:nonzero;fill:rgb(100%,100%,100%);fill-opacity:1;" d="M 48 4 C 34.703125 4 24 14.703125 24 28 L 24 32 C 19.628906 32 16 35.628906 16 40 L 16 80 C 16 84.371094 19.628906 88 24 88 L 72 88 C 76.371094 88 80 84.371094 80 80 L 80 40 C 80 35.628906 76.371094 32 72 32 L 72 28 C 72 14.703125 61.296875 4 48 4 Z M 48 12 C 57.105469 12 64 18.894531 64 28 L 64 32 L 32 32 L 32 28 C 32 18.894531 38.894531 12 48 12 Z M 24 40 L 72 40 L 72 80 L 24 80 Z M 48 52 C 43.601562 52 40 55.601562 40 60 C 40 64.398438 43.601562 68 48 68 C 52.398438 68 56 64.398438 56 60 C 56 55.601562 52.398438 52 48 52 Z M 48 52 "/>
</g>
</svg>
