<?xml version="1.0" encoding="UTF-8"?>
<svg xmlns="http://www.w3.org/2000/svg" xmlns:xlink="http://www.w3.org/1999/xlink" viewBox="0 0 96 96" width="96px" height="96px">
<g id="surface87837704">
<path style=" stroke:none;fill-rule:nonzero;fill:rgb(100%,100%,100%);fill-opacity:1;" d="M 48 8 C 25.90625 8 8 25.90625 8 48 C 8 70.09375 25.90625 88 48 88 C 70.09375 88 88 70.09375 88 48 C 88 25.90625 70.09375 8 48 8 Z M 60 72 L 36 72 C 33.792969 72 32 70.207031 32 68 C 32 65.792969 33.792969 64 36 64 L 60 64 C 62.207031 64 64 65.792969 64 68 C 64 70.207031 62.207031 72 60 72 Z M 64 56 L 32 56 C 29.792969 56 28 54.207031 28 52 C 28 49.792969 29.792969 48 32 48 L 64 48 C 66.207031 48 68 49.792969 68 52 C 68 54.207031 66.207031 56 64 56 Z M 68 40 L 28 40 C 25.792969 40 24 38.207031 24 36 C 24 33.792969 25.792969 32 28 32 L 68 32 C 70.207031 32 72 33.792969 72 36 C 72 38.207031 70.207031 40 68 40 Z M 68 40 "/>
</g>
</svg>
