<?xml version="1.0" encoding="UTF-8"?>
<svg xmlns="http://www.w3.org/2000/svg" xmlns:xlink="http://www.w3.org/1999/xlink" viewBox="0 0 96 96" width="96px" height="96px">
<g id="surface91828147">
<path style=" stroke:none;fill-rule:nonzero;fill:rgb(34.117648%,40.784314%,56.470591%);fill-opacity:1;" d="M 23 12 C 21.085938 12 19.4375 13.355469 19.070312 15.234375 L 12.070312 51.234375 C 12.023438 51.488281 12 51.742188 12 52 L 12 76 C 12 80.371094 15.628906 84 20 84 L 76 84 C 80.371094 84 84 80.371094 84 76 L 84 52 C 84 51.742188 83.976562 51.488281 83.929688 51.234375 L 76.929688 15.234375 C 76.5625 13.355469 74.914062 12 73 12 Z M 26.296875 20 L 69.703125 20 L 75.921875 52 L 64 52 C 62.28125 52 60.75 53.097656 60.203125 54.734375 L 57.820312 61.890625 C 57.398438 63.148438 56.21875 64 54.890625 64 L 41.109375 64 C 39.78125 64 38.601562 63.152344 38.179688 61.890625 L 35.789062 54.734375 C 35.246094 53.101562 33.71875 52 32 52 L 20.078125 52 Z M 26.296875 20 "/>
</g>
</svg>
