<?xml version="1.0" encoding="UTF-8"?>
<svg xmlns="http://www.w3.org/2000/svg" xmlns:xlink="http://www.w3.org/1999/xlink" viewBox="0 0 96 96" width="96px" height="96px">
<g id="surface76104443">
<path style=" stroke:none;fill-rule:nonzero;fill:rgb(100%,100%,100%);fill-opacity:1;" d="M 12 12 C 9.792969 12 8 13.792969 8 16 L 8 24 C 8 26.207031 9.792969 28 12 28 L 84 28 C 86.207031 28 88 26.207031 88 24 L 88 16 C 88 13.792969 86.207031 12 84 12 Z M 16 36 C 13.792969 36 12 37.792969 12 40 L 12 76 C 12 80.421875 15.578125 84 20 84 L 76 84 C 80.421875 84 84 80.421875 84 76 L 84 40 C 84 37.792969 82.207031 36 80 36 Z M 40 44 L 56 44 C 58.207031 44 60 45.792969 60 48 C 60 50.207031 58.207031 52 56 52 L 40 52 C 37.792969 52 36 50.207031 36 48 C 36 45.792969 37.792969 44 40 44 Z M 40 44 "/>
</g>
</svg>
