<?xml version="1.0" encoding="UTF-8"?>
<svg xmlns="http://www.w3.org/2000/svg" xmlns:xlink="http://www.w3.org/1999/xlink" viewBox="0 0 96 96" width="96px" height="96px">
<g id="surface77195615">
<path style=" stroke:none;fill-rule:nonzero;fill:rgb(100%,100%,100%);fill-opacity:1;" d="M 24 8 L 24 16 L 80 16 L 80 72 L 88 72 L 88 16 C 88 11.578125 84.421875 8 80 8 Z M 16 24 C 11.578125 24 8 27.578125 8 32 L 8 80 C 8 84.421875 11.578125 88 16 88 L 64 88 C 68.421875 88 72 84.421875 72 80 L 72 32 C 72 27.578125 68.421875 24 64 24 Z M 16 32 L 64 32 L 64 80 L 16 80 Z M 36 40 L 36 52 L 24 52 L 24 60 L 36 60 L 36 72 L 44 72 L 44 60 L 56 60 L 56 52 L 44 52 L 44 40 Z M 36 40 "/>
</g>
</svg>
