<?xml version="1.0" encoding="UTF-8"?>
<svg xmlns="http://www.w3.org/2000/svg" xmlns:xlink="http://www.w3.org/1999/xlink" viewBox="0 0 96 96" width="96px" height="96px">
<g id="surface77408225">
<path style=" stroke:none;fill-rule:nonzero;fill:rgb(100%,100%,100%);fill-opacity:1;" d="M 20 12 C 15.628906 12 12 15.628906 12 20 L 12 76 C 12 80.371094 15.628906 84 20 84 L 76 84 C 80.371094 84 84 80.371094 84 76 L 84 20 C 84 15.628906 80.371094 12 76 12 Z M 20 20 L 76 20 L 76 42.34375 L 62.828125 29.171875 L 57.171875 34.828125 L 66.34375 44 L 36 44 L 36 52 L 66.34375 52 L 57.171875 61.171875 L 62.828125 66.828125 L 76 53.65625 L 76 76 L 20 76 Z M 20 20 "/>
</g>
</svg>
